<svg width="20" height="20" viewBox="0 0 20 20" fill="none" xmlns="http://www.w3.org/2000/svg">
<path d="M11.8286 3C13.1092 3 14.3374 3.54786 15.2429 4.52304C16.1484 5.49823 16.6571 6.82087 16.6571 8.2C16.6571 9.488 16.2189 10.672 15.4983 11.584L15.6989 11.8H16.2857L20 15.8L18.8857 17L15.1714 13V12.368L14.9709 12.152C14.124 12.928 13.0246 13.4 11.8286 13.4C10.548 13.4 9.31979 12.8521 8.41426 11.877C7.50872 10.9018 7 9.57913 7 8.2C7 6.82087 7.50872 5.49823 8.41426 4.52304C9.31979 3.54786 10.548 3 11.8286 3ZM11.8286 4.6C9.97143 4.6 8.48571 6.2 8.48571 8.2C8.48571 10.2 9.97143 11.8 11.8286 11.8C13.6857 11.8 15.1714 10.2 15.1714 8.2C15.1714 6.2 13.6857 4.6 11.8286 4.6Z" fill="#030303"/>
</svg>
